<?xml version="1.0" standalone="no"?>
<!DOCTYPE svg PUBLIC "-//W3C//DTD SVG 20010904//EN"
 "http://www.w3.org/TR/2001/REC-SVG-20010904/DTD/svg10.dtd">
<svg version="1.0" xmlns="http://www.w3.org/2000/svg"
 width="618.000000pt" height="820.000000pt" viewBox="0 0 618.000000 820.000000"
 preserveAspectRatio="xMidYMid meet">

<g transform="translate(0.000000,820.000000) scale(0.100000,-0.100000)"
fill="#0f0044" stroke="none">
<path d="M4066 8184 c-61 -22 -134 -83 -237 -195 -52 -57 -130 -141 -174 -187
-78 -82 -1068 -1057 -1358 -1337 -157 -151 -198 -211 -199 -289 -1 -23 8 -59
19 -81 13 -24 137 -155 305 -320 156 -154 311 -312 346 -351 l62 -71 -103 -11
c-146 -15 -207 -40 -288 -121 -106 -106 -153 -229 -152 -396 1 -149 52 -266
159 -364 215 -197 583 -184 764 28 78 90 129 223 130 334 0 20 3 36 8 36 4 -1
158 -156 342 -345 184 -189 353 -355 376 -369 57 -35 116 -34 176 4 59 38 439
402 541 520 66 76 157 189 157 197 0 1 -37 16 -82 35 -179 70 -274 136 -337
230 -74 111 -102 268 -71 404 30 133 124 254 239 309 61 29 74 31 176 31 99 0
116 -3 170 -28 84 -40 160 -101 226 -184 62 -78 91 -144 110 -248 14 -74 11
-74 97 -22 81 49 198 146 287 238 175 182 371 402 395 441 34 59 34 131 -2
186 -15 22 -150 163 -301 313 -290 291 -368 376 -345 383 7 2 38 8 70 14 93
17 166 58 244 136 114 114 164 241 164 414 0 112 -19 193 -67 284 -107 204
-373 315 -639 267 -197 -36 -385 -214 -424 -404 -11 -51 -13 -54 -32 -44 -11
6 -140 129 -286 273 -320 315 -350 333 -466 290z"/>
<path d="M1892 6009 c-81 -15 -141 -58 -274 -194 -855 -879 -1220 -1249 -1429
-1450 -192 -185 -218 -246 -159 -372 16 -34 67 -90 173 -193 306 -296 1348
-1350 1468 -1485 170 -189 251 -250 349 -262 88 -10 115 10 435 331 160 160
309 306 332 324 l41 32 7 -52 c28 -221 157 -394 344 -460 68 -24 193 -28 271
-9 134 33 284 138 360 254 61 93 83 176 78 296 -3 90 -7 104 -46 185 -32 68
-58 104 -107 152 -93 91 -236 154 -351 154 -35 0 -33 3 204 248 235 243 331
346 400 429 34 43 34 43 17 70 -37 58 -479 493 -520 513 -81 39 -126 20 -244
-102 -128 -133 -237 -182 -431 -194 -377 -25 -643 223 -642 597 0 225 109 433
288 551 35 23 64 49 64 58 -1 45 -68 153 -161 258 -72 82 -260 256 -311 288
-48 31 -102 42 -156 33z"/>
<path d="M4041 3839 c-77 -17 -279 -187 -346 -293 -89 -142 -77 -186 108 -389
85 -94 129 -151 151 -197 29 -62 31 -71 31 -185 -1 -106 -4 -128 -28 -189 -41
-104 -94 -183 -177 -267 -168 -168 -381 -243 -551 -193 -30 9 -94 37 -144 62
-77 39 -106 62 -202 158 -63 64 -123 116 -138 120 -44 11 -104 -3 -162 -38
-69 -40 -210 -180 -317 -311 -122 -152 -137 -195 -93 -276 13 -26 356 -376
896 -916 926 -926 924 -925 1015 -925 93 0 214 85 366 257 52 59 151 166 220
238 110 116 175 201 195 256 5 14 -7 21 -62 39 -215 71 -351 174 -415 317 -24
55 -35 151 -26 232 17 147 134 308 274 373 166 78 378 32 524 -112 45 -45 63
-73 94 -149 50 -121 84 -161 137 -161 22 0 57 9 79 20 60 30 505 477 529 531
25 54 27 119 5 162 -9 18 -123 140 -253 272 -236 239 -369 392 -354 405 4 4
42 19 84 34 185 66 299 202 334 403 41 226 -9 421 -135 536 -107 96 -215 137
-365 137 -263 0 -480 -149 -556 -383 l-27 -82 -178 183 c-279 286 -391 358
-513 331z"/>
</g>
</svg>
